/vscmnt/brussel_pixiu_data/_data_brussel/112/vsc11236/PredSimResults/SUBJ04opt3D/expIG/worker_14.mot
version=1
nRows=6
nColumns=50
inDegrees=yes
endheader
                time	         pelvis_tilt	         pelvis_list	     pelvis_rotation	           pelvis_tx	           pelvis_ty	           pelvis_tz	       hip_flexion_r	     hip_adduction_r	      hip_rotation_r	        knee_angle_r	       ankle_angle_r	         mtp_angle_r	       hip_flexion_l	     hip_adduction_l	      hip_rotation_l	        knee_angle_l	       ankle_angle_l	         mtp_angle_l	    lumbar_extension	      lumbar_bending	     lumbar_rotation	 ercspn_r/activation	 intobl_r/activation	 extobl_r/activation	    abd_r/activation	    add_r/activation	hamstrings_r/activation	bifemsh_r/activation	glut_max_r/activation	iliopsoas_r/activation	rect_fem_r/activation	  vasti_r/activation	gastroc_r/activation	 soleus_r/activation	tib_ant_r/activation	 ercspn_l/activation	 intobl_l/activation	 extobl_l/activation	    abd_l/activation	    add_l/activation	hamstrings_l/activation	bifemsh_l/activation	glut_max_l/activation	iliopsoas_l/activation	rect_fem_l/activation	  vasti_l/activation	gastroc_l/activation	 soleus_l/activation	tib_ant_l/activation	
          0.77244413	         -5.77623656	         -1.37587570	          5.19888061	          1.46764385	          0.87613301	         -0.00302522	         36.17366575	          0.40668648	         -5.66502554	        -23.58176861	         10.96619957	          0.43925340	        -15.31695182	         -0.60061848	         -4.27266667	        -14.67038351	         -2.42854693	         39.00631841	        -12.69966456	          2.78838223	        -12.85496577	          0.13225663	          0.09586053	          0.02634829	          0.01000000	          0.37105143	          0.40990004	          0.04055171	          0.01000000	          0.22493132	          0.01614495	          0.11400683	          0.01128740	          0.01128740	          0.51267078	          0.11182494	          0.01000004	          0.01000000	          0.01508819	          0.22499322	          0.04458744	          0.19574814	          0.01128742	          0.68944108	          0.01000019	          0.01632440	          0.20860658	          0.12719722	          0.01000000	
          0.78016857	         -5.74924547	         -1.58565387	          4.97956792	          1.48462882	          0.87345784	         -0.00257646	         35.76667229	          1.05333741	         -5.03248823	        -23.78860729	         10.56354288	          0.43194628	        -15.06943164	         -0.96707206	         -4.68456385	        -17.17190699	         -2.92436728	         39.63548396	        -12.38262418	          3.27247424	        -12.88923784	          0.11717185	          0.08492698	          0.02334310	          0.01000000	          0.37631671	          0.36314812	          0.03592652	          0.01000005	          0.19927634	          0.01430351	          0.20063232	          0.01000000	          0.01000000	          0.50257296	          0.09907054	          0.01000001	          0.01000000	          0.01336729	          0.29830369	          0.03950250	          0.17342175	          0.01000002	          0.61080558	          0.01000003	          0.01446249	          0.18481356	          0.11268952	          0.01000001	
          0.78789301	         -5.71361911	         -1.78987590	          4.75070854	          1.50169708	          0.87065404	         -0.00208905	         35.31036587	          1.66902852	         -4.36579239	        -24.73430920	         10.21012931	          0.36707327	        -14.60797456	         -1.35619424	         -5.09037239	        -20.08546474	         -3.43651199	         39.95285214	        -12.06459598	          3.74346730	        -12.88210079	          0.10380759	          0.07524047	          0.02068067	          0.01293039	          0.35830024	          0.32172856	          0.03182888	          0.01000056	          0.17654750	          0.01267210	          0.29644376	          0.01733684	          0.02526672	          0.51492133	          0.08777087	          0.01438087	          0.01274048	          0.01274058	          0.37774177	          0.07958463	          0.15364183	          0.01438081	          0.54113898	          0.01000000	          0.01281294	          0.16373430	          0.09983650	          0.01000000	
          0.79561746	         -5.67536458	         -2.03183722	          4.51838931	          1.51881749	          0.86782101	         -0.00158303	         34.67040378	          2.29753957	         -3.72705457	        -25.62778062	         10.30576713	          0.33394837	        -13.93041720	         -1.81621923	         -5.50230941	        -23.36944813	         -4.03161084	         39.90707072	        -11.74224150	          4.25122005	        -12.82771082	          0.09196762	          0.07290369	          0.01832190	          0.12284996	          0.31743366	          0.28503320	          0.02819980	          0.04551395	          0.15641103	          0.01122676	          0.32092900	          0.01535945	          0.02238488	          0.59674804	          0.07776001	          0.01274064	          0.01128737	          0.01128743	          0.33465772	          0.07050752	          0.15309857	          0.01274058	          0.47941840	          0.01000000	          0.01135154	          0.14505927	          0.08844946	          0.01541575	
          0.80334190	         -5.63636073	         -2.28865462	          4.26121586	          1.53581122	          0.86511076	         -0.00105196	         33.92063338	          2.91421975	         -3.20036133	        -26.30816348	         10.22180689	          0.30671807	        -13.02004225	         -2.31981550	         -5.92465474	        -27.01379142	         -4.71974367	         39.30604084	        -11.44296857	          4.77023804	        -12.70797660	          0.08147808	          0.06458854	          0.01623216	          0.22240585	          0.28122822	          0.25252319	          0.02498345	          0.11825916	          0.13857127	          0.01000001	          0.41090866	          0.01360760	          0.01983173	          0.60113360	          0.11263454	          0.01128748	          0.01000001	          0.01000003	          0.29648771	          0.06246570	          0.13563757	          0.01128743	          0.42473749	          0.01000001	          0.01005682	          0.12851426	          0.07836119	          0.08344136	
          0.81106634	         -5.59677465	         -2.54263642	          3.96146595	          1.55247159	          0.86267647	         -0.00050973	         33.21916531	          3.47435671	         -2.85350616	        -27.08529377	         10.33997563	          0.24536606	        -11.86411894	         -2.84502205	         -6.35534105	        -31.01760100	         -5.41518380	         37.85174464	        -11.19723529	          5.28227174	        -12.50652709	          0.07218494	          0.05722177	          0.01438077	          0.30532239	          0.24915251	          0.22372117	          0.02213393	          0.11140871	          0.12276626	          0.01000002	          0.48806883	          0.01205557	          0.01756979	          0.56942968	          0.17946262	          0.01000008	          0.01000047	          0.01000000	          0.26267145	          0.05534109	          0.12016721	          0.01000002	          0.37629325	          0.01000001	          0.00999999	          0.11385632	          0.06942355	          0.15582820	
